<svg id="Layer_1" data-name="Layer 1" xmlns="http://www.w3.org/2000/svg" viewBox="0 0 186.01 186.01"><defs><style>.cls-1{fill:#2c98d4;}.cls-2{fill:#0277bd;}.cls-3{fill:#fff;}</style></defs><title>logo-so1toque</title><circle class="cls-1" cx="93.01" cy="93.01" r="93.01"/><path class="cls-2" d="M398,218c-1.61-1.77-22.31-22.5-23.38-23.29a6.1,6.1,0,0,0-3.75-1.1c-2.21,0-4.43,0-6.64,0a6.34,6.34,0,0,1-1.9,0,5.23,5.23,0,0,1-1.14-1.14l-1-1-2.87-2.87-10.16-10.16c-1.91-1.91-3.81-3.83-5.73-5.73a7.74,7.74,0,0,0-6.68-2.2c-4.5.39-9,2.73-10.67,7.17-1-.84-24.86-24.84-25.81-25.8s-1.73-2-3.2-1.77c-1.07.14-2.15,0.39-3.21,0.58l-29.57,5.37a8.56,8.56,0,0,0-3.07.75c-1,.67-1,1.69-1,2.74s-0.12,7.86,0,10a3.12,3.12,0,0,0,1.21,2.15l14.46,14.46a1,1,0,0,1,.5,1v34.9c0,0.37.26,2,0,2.34a5.51,5.51,0,0,1-1.75.21l-3.85.47-7.49.91a3.37,3.37,0,0,0-2.21.77,3.15,3.15,0,0,0-.66,2.45v11a3.36,3.36,0,0,0,1.07,2.74c7.77,7.69,15.46,15.46,23.18,23.18l30.09,30.09a1.24,1.24,0,0,0,1.38.45q1.56-.13,3.12-0.32A92.89,92.89,0,0,0,398,218h0Z" transform="translate(-212.99 -110.99)"/><path class="cls-3" d="M313.34,228.14a2.29,2.29,0,0,0-2-2.05l-13.59-1.66,0-11.7a2.29,2.29,0,0,0-1.73-2.23,9.93,9.93,0,0,1-4.77-3.1,11.42,11.42,0,0,1,.08-16.41,10.24,10.24,0,0,1,4.71-3.1,2.29,2.29,0,0,0,1.71-2.22l0-33.3a2.29,2.29,0,0,0-2.7-2.25l-35,6.36a2.29,2.29,0,0,0-1.88,2.26v10.84a2.29,2.29,0,0,0,2.29,2.29h13.87v52.57l-13.95,1.7a2.29,2.29,0,0,0-2,2.28v12.54a2.29,2.29,0,0,0,2.29,2.29h50.81a2.29,2.29,0,0,0,2.29-2.29V230.42a2.31,2.31,0,0,0-.07-0.56A11.93,11.93,0,0,1,313.34,228.14Zm-4.22,10.51H262.89v-8.21l13.95-1.7a2.29,2.29,0,0,0,2-2.28V169.57a2.29,2.29,0,0,0-2.29-2.29H262.7v-6.63l30.46-5.53,0,28.92a16.37,16.37,0,0,0-5.05,3.69,16.71,16.71,0,0,0,5,26.65l0,12.08a2.29,2.29,0,0,0,2,2.28l13.89,1.69,0.06,0.26v8Z" transform="translate(-212.99 -110.99)"/><path class="cls-3" d="M375.28,195.37a5.6,5.6,0,0,0-4.1-1.71H358.11a2.66,2.66,0,0,1-1-.19,4.18,4.18,0,0,1-1.07-.63l-1-.81a12.26,12.26,0,0,1-1.09-1L353,190q-0.32-.34-0.86-1t-0.63-.77a49.64,49.64,0,0,1-4.54-5.85q-0.59-1-1.5-2.81t-1.68-3.27a25.8,25.8,0,0,0-1.84-2.86,7.79,7.79,0,0,0-2.49-2.25,6.39,6.39,0,0,0-3.15-.79,14.26,14.26,0,0,0-9.37,3,10.44,10.44,0,0,0-3.7,8.55,16.42,16.42,0,0,0,1,5.79h-17a11.65,11.65,0,0,0,0,23.3H315a12.07,12.07,0,0,0,1.68,5.38,13.64,13.64,0,0,0-.14,1.94,12.75,12.75,0,0,0,2.72,8.07q0,6.3,3.86,10t10.3,3.65q6,0,14.6-3.14,7.44-2.68,10.11-2.69h13.06a5.79,5.79,0,0,0,5.81-5.79v-29A5.62,5.62,0,0,0,375.28,195.37Zm-15.77,33.1h-1.39a24.27,24.27,0,0,0-7.57,1.47q-4.31,1.45-8.78,2.91a26.58,26.58,0,0,1-8.14,1.46q-8.57,0-8.57-7.57a15.52,15.52,0,0,1,.23-2.54,5.05,5.05,0,0,1-2.15-2.38,7.65,7.65,0,0,1-.79-3.33,6.28,6.28,0,0,1,.82-3.13,7.17,7.17,0,0,1-2.4-5.4,8.12,8.12,0,0,1,.45-2.51,6.32,6.32,0,0,1,1.13-2.14h-15a5.83,5.83,0,0,1,0-11.65h26.12a5.14,5.14,0,0,0-.68-2.19,25.88,25.88,0,0,0-1.5-2.49,13.93,13.93,0,0,1-1.5-3.08,11.18,11.18,0,0,1-.68-3.83,5,5,0,0,1,2-4.42,9.09,9.09,0,0,1,5.24-1.38q1.09,0,4.08,6.3,1.09,2,1.68,2.95a50.66,50.66,0,0,0,5.08,6.58,51.39,51.39,0,0,0,4.58,4.81,9.94,9.94,0,0,0,6.35,2.59h1.39v29Zm10.81-.82a2.85,2.85,0,1,1,.86-2A2.79,2.79,0,0,1,370.31,227.65Z" transform="translate(-212.99 -110.99)"/></svg>