<svg id="Layer_1" data-name="Layer 1" xmlns="http://www.w3.org/2000/svg" viewBox="0 0 329.2 317.37"><defs><style>.cls-1{fill:#78909c;}.cls-2{fill:#2c98d4;}.cls-3{fill:#0277bd;}.cls-4{fill:#fff;}</style></defs><title>logo-so1toque</title><path class="cls-1" d="M246.62,338.25a0.41,0.41,0,0,1-.38.23,1.23,1.23,0,0,1-.65-0.35,7.38,7.38,0,0,0-1.17-.74,10.75,10.75,0,0,0-1.86-.74,9.42,9.42,0,0,0-2.75-.35,8.06,8.06,0,0,0-2.75.45,7.09,7.09,0,0,0-2.14,1.19,5.22,5.22,0,0,0-1.38,1.74,4.68,4.68,0,0,0-.49,2.08,3.58,3.58,0,0,0,.63,2.15,5.31,5.31,0,0,0,1.65,1.47,11.68,11.68,0,0,0,2.33,1l2.66,0.85q1.36,0.42,2.67.91a10.36,10.36,0,0,1,2.33,1.21,5.7,5.7,0,0,1,1.65,1.77,5,5,0,0,1,.63,2.59,7.79,7.79,0,0,1-.56,3,6.91,6.91,0,0,1-1.65,2.42,7.72,7.72,0,0,1-2.67,1.63,10.23,10.23,0,0,1-3.6.59,12.78,12.78,0,0,1-2.46-.22,10.62,10.62,0,0,1-2-.62,9.75,9.75,0,0,1-1.77-1,15.32,15.32,0,0,1-1.59-1.25l0.33-.44a1,1,0,0,1,.19-0.19,0.52,0.52,0,0,1,.29-0.06,1.35,1.35,0,0,1,.73.42,10,10,0,0,0,1.28.94,9.68,9.68,0,0,0,2,.93,9.37,9.37,0,0,0,3,.42,8.92,8.92,0,0,0,3.11-.5,6.46,6.46,0,0,0,2.25-1.37,5.68,5.68,0,0,0,1.37-2,6.65,6.65,0,0,0,.46-2.47,4,4,0,0,0-.63-2.31,5.36,5.36,0,0,0-1.65-1.55,11.35,11.35,0,0,0-2.33-1.06q-1.31-.44-2.66-0.85t-2.67-.88a10.2,10.2,0,0,1-2.33-1.18,5.68,5.68,0,0,1-1.65-1.73,4.83,4.83,0,0,1-.63-2.56,5.6,5.6,0,0,1,.58-2.47,6.5,6.5,0,0,1,1.63-2.1,8,8,0,0,1,2.52-1.45,9.55,9.55,0,0,1,3.29-.54,11.35,11.35,0,0,1,3.89.62,10,10,0,0,1,3.2,1.95Z" transform="translate(-150.63 -52.71)"/><path class="cls-1" d="M262.37,335.26a11.59,11.59,0,0,1,4.78.94,9.76,9.76,0,0,1,3.52,2.64,11.62,11.62,0,0,1,2.18,4.11,19.62,19.62,0,0,1,0,10.7,11.49,11.49,0,0,1-2.18,4.09,9.55,9.55,0,0,1-3.52,2.6,13,13,0,0,1-9.56,0,9.53,9.53,0,0,1-3.52-2.6,11.47,11.47,0,0,1-2.18-4.09,19.62,19.62,0,0,1,0-10.7,11.61,11.61,0,0,1,2.18-4.11,9.75,9.75,0,0,1,3.52-2.64A11.58,11.58,0,0,1,262.37,335.26Zm0,24.9a10.24,10.24,0,0,0,4.3-.85,8.31,8.31,0,0,0,3.09-2.41,10.54,10.54,0,0,0,1.86-3.74,17.89,17.89,0,0,0,.61-4.87,18.19,18.19,0,0,0-.61-4.89,10.65,10.65,0,0,0-1.86-3.78,8.37,8.37,0,0,0-3.09-2.43,11.22,11.22,0,0,0-8.61,0,8.38,8.38,0,0,0-3.09,2.43,10.65,10.65,0,0,0-1.86,3.78,18.22,18.22,0,0,0-.61,4.89,17.93,17.93,0,0,0,.61,4.87,10.54,10.54,0,0,0,1.86,3.74,8.31,8.31,0,0,0,3.09,2.41A10.24,10.24,0,0,0,262.37,360.16Zm4.94-35.67L262,330.93a0.73,0.73,0,0,1-.62.31h-0.82l4.15-6.07a1.73,1.73,0,0,1,.49-0.52,1.48,1.48,0,0,1,.74-0.14h1.38Z" transform="translate(-150.63 -52.71)"/><path class="cls-1" d="M299.78,359.88v1.05H281.62v-1.05h8.56V328.16q0-.38,0-0.79t0.08-.82l-8.79,7.89a0.48,0.48,0,0,1-.44.17,0.62,0.62,0,0,1-.38-0.22l-0.38-.51,10.25-9.15h1v35.15h8.28Z" transform="translate(-150.63 -52.71)"/><path class="cls-1" d="M313.15,361.34a5.07,5.07,0,0,1-3.69-1.29,5.6,5.6,0,0,1-1.33-4.16V337.67h-3.95a0.39,0.39,0,0,1-.49-0.38v-0.46l4.43-.18,0.38-9.74a0.68,0.68,0,0,1,.13-0.29,0.33,0.33,0,0,1,.28-0.14h0.56v10.17h8.35v1h-8.35v18.17a5.83,5.83,0,0,0,.31,2,3.93,3.93,0,0,0,.82,1.37,3,3,0,0,0,1.22.78,5,5,0,0,0,3.28-.06,7.2,7.2,0,0,0,2.17-1.33,1,1,0,0,1,.49-0.31,0.43,0.43,0,0,1,.28.15l0.33,0.49a5.81,5.81,0,0,1-1,1,7,7,0,0,1-1.27.76,7.73,7.73,0,0,1-1.43.5A6.45,6.45,0,0,1,313.15,361.34Z" transform="translate(-150.63 -52.71)"/><path class="cls-1" d="M331.4,335.26a11.59,11.59,0,0,1,4.78.94,9.76,9.76,0,0,1,3.52,2.64,11.62,11.62,0,0,1,2.18,4.11,19.62,19.62,0,0,1,0,10.7,11.49,11.49,0,0,1-2.18,4.09,9.55,9.55,0,0,1-3.52,2.6,13,13,0,0,1-9.56,0,9.53,9.53,0,0,1-3.52-2.6,11.47,11.47,0,0,1-2.18-4.09,19.62,19.62,0,0,1,0-10.7,11.61,11.61,0,0,1,2.18-4.11,9.75,9.75,0,0,1,3.52-2.64A11.58,11.58,0,0,1,331.4,335.26Zm0,24.9a10.24,10.24,0,0,0,4.3-.85,8.31,8.31,0,0,0,3.09-2.41,10.54,10.54,0,0,0,1.86-3.74,17.89,17.89,0,0,0,.61-4.87,18.19,18.19,0,0,0-.61-4.89,10.65,10.65,0,0,0-1.86-3.78,8.37,8.37,0,0,0-3.09-2.43,11.22,11.22,0,0,0-8.61,0,8.38,8.38,0,0,0-3.09,2.43,10.65,10.65,0,0,0-1.86,3.78,18.22,18.22,0,0,0-.61,4.89,17.93,17.93,0,0,0,.61,4.87,10.54,10.54,0,0,0,1.86,3.74,8.31,8.31,0,0,0,3.09,2.41A10.24,10.24,0,0,0,331.4,360.16Z" transform="translate(-150.63 -52.71)"/><path class="cls-1" d="M367,335.67v34.41h-1.36V356a13.11,13.11,0,0,1-4,3.87,9.77,9.77,0,0,1-5.15,1.41,9,9,0,0,1-7.4-3.18q-2.59-3.18-2.59-9.71a18.08,18.08,0,0,1,.71-5.15,12.2,12.2,0,0,1,2.1-4.15,9.9,9.9,0,0,1,3.46-2.78,10.72,10.72,0,0,1,4.78-1,10.08,10.08,0,0,1,4.73,1.05,9.43,9.43,0,0,1,3.45,3.18l0.15-3.3a0.48,0.48,0,0,1,.54-0.51H367Zm-1.36,5.1a9.28,9.28,0,0,0-3.45-3.42,9.4,9.4,0,0,0-4.47-1,9.69,9.69,0,0,0-4.33.91,8.59,8.59,0,0,0-3.07,2.52,11.18,11.18,0,0,0-1.84,3.82,17.77,17.77,0,0,0-.62,4.79q0,6,2.27,8.92a7.9,7.9,0,0,0,6.62,2.9,8.93,8.93,0,0,0,4.93-1.46,13.49,13.49,0,0,0,4-4V340.76Z" transform="translate(-150.63 -52.71)"/><path class="cls-1" d="M392.91,335.67v25.26H392.3a0.51,0.51,0,0,1-.54-0.51L391.63,356a14.33,14.33,0,0,1-4.23,3.88,10.28,10.28,0,0,1-5.36,1.45,9.55,9.55,0,0,1-3.68-.65,6.8,6.8,0,0,1-2.61-1.87,8.08,8.08,0,0,1-1.56-3,14,14,0,0,1-.53-4V335.67H375v16.17a13.2,13.2,0,0,0,.44,3.54,7,7,0,0,0,1.35,2.65,5.9,5.9,0,0,0,2.28,1.67,8.26,8.26,0,0,0,3.22.58,9.5,9.5,0,0,0,5.08-1.45,14.73,14.73,0,0,0,4.19-4V335.67h1.33Z" transform="translate(-150.63 -52.71)"/><path class="cls-1" d="M418.56,357.83a6.27,6.27,0,0,1-1.43,1.26,11.34,11.34,0,0,1-2.11,1.09,15.77,15.77,0,0,1-2.59.77,13.82,13.82,0,0,1-2.86.29,11.59,11.59,0,0,1-4.68-.91,9.76,9.76,0,0,1-3.56-2.63,11.91,11.91,0,0,1-2.27-4.21,18.81,18.81,0,0,1-.79-5.7,16.1,16.1,0,0,1,.76-5.06,11.51,11.51,0,0,1,2.19-4,9.85,9.85,0,0,1,3.51-2.59,11.48,11.48,0,0,1,4.71-.92,10.16,10.16,0,0,1,3.83.72,8.81,8.81,0,0,1,3.11,2.11,9.87,9.87,0,0,1,2.09,3.45,13.5,13.5,0,0,1,.76,4.69,0.44,0.44,0,0,1-.46.54H399.63a4.89,4.89,0,0,0,0,.5v0.53a18,18,0,0,0,.72,5.33,11.1,11.1,0,0,0,2,3.87,8.46,8.46,0,0,0,3.16,2.37,10.28,10.28,0,0,0,4.14.81,12.22,12.22,0,0,0,3.51-.45,13.54,13.54,0,0,0,2.49-1,10.23,10.23,0,0,0,1.55-1,1.89,1.89,0,0,1,.7-0.45,0.41,0.41,0,0,1,.33.15Zm-0.56-12a11.74,11.74,0,0,0-.65-4.06,8.86,8.86,0,0,0-1.79-3,7.53,7.53,0,0,0-2.7-1.87,8.84,8.84,0,0,0-3.38-.64,10.35,10.35,0,0,0-3.86.68,8.41,8.41,0,0,0-2.93,1.93,9.73,9.73,0,0,0-2,3,13.66,13.66,0,0,0-1,3.95H418Z" transform="translate(-150.63 -52.71)"/><path class="cls-1" d="M226.63,343.71l-0.05.34a0.4,0.4,0,0,1-.47.36h-3.72L220.72,352h4.48a0.32,0.32,0,0,1,.36.41l0,0.29h-4.93l-1.78,8.15h-0.34a0.42,0.42,0,0,1-.31-0.12,0.35,0.35,0,0,1,0-.37l1.67-7.67H214l-1.67,7.68a0.6,0.6,0,0,1-.19.36,0.51,0.51,0,0,1-.33.11h-0.4l1.78-8.15h-3.63a0.41,0.41,0,0,1-.29-0.1,0.36,0.36,0,0,1-.07-0.33l0-.27h4.08l1.64-7.59h-4.77l0-.34a0.39,0.39,0,0,1,.47-0.36H215l1.67-7.7a0.49,0.49,0,0,1,.54-0.45h0.38l-1.78,8.15h5.85l1.76-8.15h0.41a0.32,0.32,0,0,1,.29.14,0.46,0.46,0,0,1,0,.39l-1.67,7.63h4.14Zm-5.06.7h-5.85L214.08,352h5.83Z" transform="translate(-150.63 -52.71)"/><path class="cls-1" d="M215.26,288.42c-13.6,0-25.9-2.28-36.59-6.78s-19.64-10.58-26.47-18a5.93,5.93,0,0,1-1.57-4V228.5a5.94,5.94,0,0,1,5.94-5.94h17a5.94,5.94,0,0,1,5.84,4.87l4,21.79a51,51,0,0,0,12.29,6.58c5.34,2,11.94,3.06,19.6,3.06,10.07,0,18-2.05,23.55-6.1a17.05,17.05,0,0,0,7.49-14.84,19,19,0,0,0-6.65-14.83c-5-4.48-14.35-8.41-27.86-11.68-18.47-4.4-33.23-11.06-43.84-19.79-11.34-9.33-17.09-21.27-17.09-35.48,0-15,6.37-27.52,18.93-37.35,12.12-9.49,27.92-14.3,47-14.3A88.37,88.37,0,0,1,251,111c10.27,4.3,18.69,9.64,25,15.89a5.94,5.94,0,0,1,1.77,4.23v31.13a5.94,5.94,0,0,1-5.94,5.94H254.77a5.93,5.93,0,0,1-5.84-4.9l-3.85-21.64a39.53,39.53,0,0,0-10.22-4.9,57.69,57.69,0,0,0-18.11-2.57c-10.59,0-18.67,2.14-24,6.36a18.41,18.41,0,0,0-7.4,15.27c0,5.41,2.36,9.68,7.42,13.44,5.88,4.37,15.87,8.35,29.66,11.81,18.5,4.58,32.88,11.55,42.73,20.7a47.28,47.28,0,0,1,15.62,35.93c0,15.39-6.35,27.93-18.87,37.26C250,283.89,234.25,288.42,215.26,288.42Z" transform="translate(-150.63 -52.71)"/><path class="cls-1" d="M421.11,95.13H404.22a5.93,5.93,0,0,1-4.88-9.31l21.13-30.55a5.93,5.93,0,0,1,4.88-2.56h26.42a5.94,5.94,0,0,1,5.63,4.06l0.23,0.69a5.93,5.93,0,0,1-1.51,6.14l-30.9,29.86A5.93,5.93,0,0,1,421.11,95.13Z" transform="translate(-150.63 -52.71)"/><circle class="cls-2" cx="236.2" cy="149.82" r="93.01"/><path class="cls-3" d="M478.84,216.57c-1.61-1.77-22.31-22.5-23.38-23.29a6.1,6.1,0,0,0-3.75-1.1c-2.21,0-4.43,0-6.64,0a6.34,6.34,0,0,1-1.9,0A5.23,5.23,0,0,1,442,191l-1-1-2.87-2.87L428,177c-1.91-1.91-3.81-3.83-5.73-5.73a7.74,7.74,0,0,0-6.68-2.2c-4.5.39-9,2.73-10.67,7.17-1-.84-24.86-24.84-25.81-25.8s-1.73-2-3.2-1.77c-1.07.14-2.15,0.39-3.21,0.58l-29.57,5.37a8.56,8.56,0,0,0-3.07.75c-1,.67-1,1.69-1,2.74s-0.12,7.86,0,10a3.12,3.12,0,0,0,1.21,2.15l14.46,14.46a1,1,0,0,1,.5,1v34.9c0,0.37.26,2,0,2.34a5.51,5.51,0,0,1-1.75.21l-3.85.47-7.49.91a3.37,3.37,0,0,0-2.21.77,3.15,3.15,0,0,0-.66,2.45v11a3.36,3.36,0,0,0,1.07,2.74c7.77,7.69,15.46,15.46,23.18,23.18l30.09,30.09a1.24,1.24,0,0,0,1.38.45q1.56-.13,3.12-0.32a92.89,92.89,0,0,0,80.81-78.3h0Z" transform="translate(-150.63 -52.71)"/><path class="cls-4" d="M394.17,226.66a2.29,2.29,0,0,0-2-2.05L378.58,223l0-11.7a2.29,2.29,0,0,0-1.73-2.23,9.93,9.93,0,0,1-4.77-3.1,11.42,11.42,0,0,1,.08-16.41,10.24,10.24,0,0,1,4.71-3.1,2.29,2.29,0,0,0,1.71-2.22l0-33.3a2.29,2.29,0,0,0-2.7-2.25l-35,6.36a2.29,2.29,0,0,0-1.88,2.26v10.84a2.29,2.29,0,0,0,2.29,2.29H355.1V223l-13.95,1.7a2.29,2.29,0,0,0-2,2.28v12.54a2.29,2.29,0,0,0,2.29,2.29h50.81a2.29,2.29,0,0,0,2.29-2.29V228.95a2.31,2.31,0,0,0-.07-0.56A11.93,11.93,0,0,1,394.17,226.66Zm-4.22,10.51H343.72V229l13.95-1.7a2.29,2.29,0,0,0,2-2.28V168.09a2.29,2.29,0,0,0-2.29-2.29H343.53v-6.63L374,153.64l0,28.92a16.37,16.37,0,0,0-5.05,3.69,16.71,16.71,0,0,0,5,26.65L374,225a2.29,2.29,0,0,0,2,2.28L389.89,229l0.06,0.26v8Z" transform="translate(-150.63 -52.71)"/><path class="cls-4" d="M456.11,193.89a5.6,5.6,0,0,0-4.1-1.71H438.94a2.66,2.66,0,0,1-1-.19,4.18,4.18,0,0,1-1.07-.63l-1-.81a12.26,12.26,0,0,1-1.09-1l-0.93-1q-0.32-.34-0.86-1t-0.63-.77a49.64,49.64,0,0,1-4.54-5.85q-0.59-1-1.5-2.81t-1.68-3.27a25.8,25.8,0,0,0-1.84-2.86,7.79,7.79,0,0,0-2.49-2.25,6.39,6.39,0,0,0-3.15-.79,14.26,14.26,0,0,0-9.37,3,10.44,10.44,0,0,0-3.7,8.55,16.42,16.42,0,0,0,1,5.79h-17a11.65,11.65,0,0,0,0,23.3h7.67a12.07,12.07,0,0,0,1.68,5.38,13.64,13.64,0,0,0-.14,1.94,12.75,12.75,0,0,0,2.72,8.07q0,6.3,3.86,10t10.3,3.65q6,0,14.6-3.14,7.44-2.68,10.11-2.69H452a5.79,5.79,0,0,0,5.81-5.79V198A5.62,5.62,0,0,0,456.11,193.89ZM440.33,227h-1.39a24.27,24.27,0,0,0-7.57,1.47q-4.31,1.45-8.78,2.91a26.58,26.58,0,0,1-8.14,1.46q-8.57,0-8.57-7.57a15.52,15.52,0,0,1,.23-2.54,5.05,5.05,0,0,1-2.15-2.38,7.65,7.65,0,0,1-.79-3.33,6.28,6.28,0,0,1,.82-3.13,7.17,7.17,0,0,1-2.4-5.4A8.12,8.12,0,0,1,402,206a6.32,6.32,0,0,1,1.13-2.14h-15a5.83,5.83,0,0,1,0-11.65h26.12a5.14,5.14,0,0,0-.68-2.19,25.88,25.88,0,0,0-1.5-2.49,13.93,13.93,0,0,1-1.5-3.08,11.18,11.18,0,0,1-.68-3.83,5,5,0,0,1,2-4.42,9.09,9.09,0,0,1,5.24-1.38q1.09,0,4.08,6.3,1.09,2,1.68,2.95a50.66,50.66,0,0,0,5.08,6.58,51.39,51.39,0,0,0,4.58,4.81,9.94,9.94,0,0,0,6.35,2.59h1.39v29Zm10.81-.82a2.85,2.85,0,1,1,.86-2A2.79,2.79,0,0,1,451.14,226.17Z" transform="translate(-150.63 -52.71)"/></svg>